<svg width="256" height="256" viewBox="0 0 256 256" fill="none" xmlns="http://www.w3.org/2000/svg">
<g clip-path="url(#clip0_26_386)">
<mask id="mask0_26_386" style="mask-type:luminance" maskUnits="userSpaceOnUse" x="0" y="0" width="256" height="256">
<path d="M0 0H256V256H0V0Z" fill="white"/>
</mask>
<g mask="url(#mask0_26_386)">
<path d="M84.93 0H171.07C200.6 0 211.31 3.07 222.11 8.85C232.778 14.4975 241.503 23.2217 247.15 33.89C252.93 44.69 256 55.39 256 84.93V171.07C256 200.6 252.93 211.31 247.15 222.11C241.503 232.778 232.778 241.503 222.11 247.15C211.31 252.93 200.61 256 171.07 256H84.93C55.4 256 44.69 252.93 33.89 247.15C23.2217 241.503 14.4975 232.778 8.85 222.11C3.07 211.3 0 200.6 0 171.07V84.93C0 55.4 3.07 44.69 8.85 33.89C14.4975 23.2217 23.2217 14.4975 33.89 8.85C44.7 3.07 55.4 0 84.93 0Z" fill="url(#paint0_linear_26_386)"/>
<g style="mix-blend-mode:lighten">
<path fill-rule="evenodd" clip-rule="evenodd" d="M128.001 41.5C131.453 41.5 134.251 44.2982 134.251 47.75V112.659L195.331 51.5798C197.771 49.1391 201.729 49.1391 204.169 51.5798C206.61 54.0206 206.61 57.9779 204.169 60.4187L143.088 121.5H208.001C211.453 121.5 214.251 124.298 214.251 127.75C214.251 131.202 211.453 134 208.001 134H134.251V193.249H208.001C211.453 193.249 214.251 196.047 214.251 199.499C214.251 202.951 211.453 205.749 208.001 205.749H128.062C128.041 205.749 128.021 205.75 128.001 205.75C127.981 205.75 127.961 205.749 127.94 205.749H56.252L56.251 205.749C54.6511 205.749 53.0512 205.139 51.8306 203.919C50.5703 202.658 49.9608 200.994 50.002 199.343V127.831C50.0016 127.804 50.001 127.777 50.001 127.75C50.001 127.723 50.0016 127.696 50.002 127.669V47.75C50.002 44.2982 52.8002 41.5 56.252 41.5C59.7037 41.5 62.502 44.2982 62.502 47.75V121.5H121.751V47.75C121.751 44.2982 124.549 41.5 128.001 41.5ZM71.3389 193.249H121.751V142.837L71.3389 193.249ZM62.502 184.408L112.91 134H62.502V184.408Z" fill="white"/>
</g>
</g>
</g>
<defs>
<linearGradient id="paint0_linear_26_386" x1="128" y1="41.25" x2="128" y2="256" gradientUnits="userSpaceOnUse">
<stop stop-color="#430000"/>
<stop offset="1" stop-color="#A00000"/>
</linearGradient>
<clipPath id="clip0_26_386">
<rect width="256" height="256" fill="white"/>
</clipPath>
</defs>
</svg>
